<?xml version="1.0" encoding="UTF-8" standalone="no"?>
<!-- Created with Inkscape (http://www.inkscape.org/) -->

<svg
   width="210mm"
   height="297mm"
   viewBox="0 0 210 297"
   version="1.1"
   id="svg5"
   xmlns:inkscape="http://www.inkscape.org/namespaces/inkscape"
   xmlns:sodipodi="http://sodipodi.sourceforge.net/DTD/sodipodi-0.dtd"
   xmlns="http://www.w3.org/2000/svg"
   xmlns:svg="http://www.w3.org/2000/svg">
  <sodipodi:namedview
     id="namedview7"
     pagecolor="#ffffff"
     bordercolor="#000000"
     borderopacity="0.25"
     inkscape:showpageshadow="2"
     inkscape:pageopacity="0.0"
     inkscape:pagecheckerboard="0"
     inkscape:deskcolor="#d1d1d1"
     inkscape:document-units="mm"
     showgrid="false" />
  <defs
     id="defs2" />
  <g
     inkscape:label="Capa 1"
     inkscape:groupmode="layer"
     id="layer1">
    <ellipse
       style="fill:#ff9a00;fill-opacity:1"
       id="path111"
       cx="43.327484"
       cy="164.14105"
       rx="17.079296"
       ry="16.360168" />
    <ellipse
       style="fill:#ff9a00;fill-opacity:1"
       id="path113"
       cx="86.475182"
       cy="123.33051"
       rx="21.394068"
       ry="21.214285" />
    <path
       style="fill:#ff9a00;fill-opacity:1;stroke-width:1.35898"
       d="m 155.60352,680.62615 c -21.83726,-2.55097 -40.49702,-16.03917 -50.03098,-36.16486 -4.04905,-8.54734 -4.32833,-10.10146 -4.32833,-24.0857 0,-13.98424 0.27928,-15.53837 4.32833,-24.0857 10.78806,-22.77303 32.69508,-36.52493 58.18487,-36.52493 25.48979,0 47.39682,13.7519 58.18487,36.52493 4.04905,8.54733 4.32833,10.10146 4.32833,24.0857 0,13.98424 -0.27928,15.53836 -4.32833,24.0857 -11.99637,25.32373 -37.96315,39.47963 -66.33876,36.16486 z"
       id="path184"
       transform="scale(0.26458333)" />
    <path
       style="fill:#ff9a00;fill-opacity:1;stroke-width:1.35898"
       d="m 317.32245,544.78085 c -34.63437,-3.68241 -64.53302,-32.76703 -69.62947,-67.73373 -5.46865,-37.52037 18.33431,-74.69391 55.36016,-86.45703 37.83463,-12.02006 79.08076,6.23901 96.0985,42.54143 10.26987,21.90783 10.26241,44.1035 -0.0222,66.05035 -14.63536,31.23104 -47.04327,49.29512 -81.80695,45.59898 z"
       id="path1141"
       transform="scale(0.26458333)" />
    <path
       style="fill:#ff9a00;fill-opacity:1;stroke-width:1.35898"
       d="m 313.71665,543.53706 c -23.88478,-4.23862 -45.18727,-20.02153 -56.76752,-42.0588 -16.12536,-30.68661 -10.42252,-65.31397 14.91276,-90.54963 20.69083,-20.60946 49.50047,-28.11053 76.97657,-20.0421 25.56057,7.50592 47.91755,30.77306 54.74081,56.96933 2.65703,10.20105 2.65703,26.34935 0,36.55039 -4.86082,18.66195 -20.46223,39.65663 -36.34378,48.90753 -15.1597,8.83041 -37.41346,13.08137 -53.51884,10.22328 z"
       id="path1143"
       transform="scale(0.26458333)" />
    <path
       style="fill:#ff9a00;fill-opacity:1;stroke-width:0.339746"
       d="m 315.63753,544.38104 c -30.90604,-4.14752 -58.17188,-28.66773 -66.10932,-59.45222 -1.86855,-7.24694 -2.16075,-9.75108 -2.17361,-18.62789 -0.0103,-7.08975 0.0917,-8.72976 0.78112,-12.5664 4.59027,-25.54364 20.8398,-47.10908 44.04555,-58.4547 17.19283,-8.40582 35.55815,-10.36581 53.87625,-5.74982 10.56106,2.66129 21.59056,8.1466 30.38068,15.10924 16.10167,12.75412 27.2076,32.60104 29.72675,53.12338 0.47607,3.8783 0.47537,12.86736 -10e-4,16.73685 -1.53082,12.42666 -6.57709,25.573 -13.85586,36.09678 -13.0163,18.81916 -32.82202,30.80719 -55.89203,33.83038 -5.04972,0.66174 -15.68123,0.63841 -20.77821,-0.0456 z"
       id="path1145"
       transform="scale(0.26458333)" />
    <path
       style="fill:#ff9a00;fill-opacity:1;stroke-width:0.339746"
       d="m 321.90902,545.93489 c -28.85493,-1.68145 -54.9723,-19.05908 -67.60168,-44.9799 -3.7324,-7.66046 -6.05641,-15.10586 -7.37035,-23.61233 -0.83801,-5.42529 -0.83801,-16.99792 0,-22.42321 3.52043,-22.7913 16.13376,-42.65045 35.05191,-55.18774 13.57152,-8.99401 28.37388,-13.46077 44.67656,-13.48159 11.23743,-0.0144 20.81133,1.84423 31.08673,6.03488 23.39953,9.54313 41.26281,30.20213 47.40161,54.8203 1.71067,6.86021 2.18337,10.97932 2.18337,19.02576 0,5.3124 -0.16487,8.37009 -0.60455,11.2116 -2.81123,18.16837 -11.07832,34.01285 -24.32119,46.61335 -16.14444,15.36132 -37.97464,23.29164 -60.50241,21.97888 z m 17.83665,-1.6153 c 34.01815,-5.88033 59.60087,-31.23592 66.16609,-65.57865 0.65734,-3.43858 0.75396,-5.06113 0.75084,-12.60988 -0.003,-6.84205 -0.13023,-9.3421 -0.60597,-11.8911 -5.05975,-27.10999 -21.97963,-49.2174 -46.03604,-60.15042 -21.17998,-9.62575 -44.65351,-9.74495 -65.67696,-0.33353 -9.01167,4.03419 -16.8893,9.51455 -24.14722,16.7989 -13.0273,13.07474 -21.18154,30.19197 -23.06422,48.41596 -0.49514,4.79292 -0.21998,14.58816 0.53505,19.04655 2.29598,13.55765 8.20672,26.56781 17.05809,37.54663 3.22353,3.99832 9.28818,9.95747 13.3565,13.12415 11.26492,8.76834 24.02136,14.1898 37.88164,16.09961 5.15712,0.7106 18.48006,0.4483 23.7822,-0.46822 z"
       id="path1147"
       transform="scale(0.26458333)" />
    <g
       id="g1265">
      <path
         style="fill:#ff9a00;fill-opacity:1;stroke-width:1.35898"
         d="m 152.88555,679.44438 c -20.13801,-3.57702 -37.1073,-16.33219 -46.14115,-34.68255 -4.12606,-8.3812 -4.35028,-9.63815 -4.35028,-24.38624 0,-14.7481 0.22422,-16.00504 4.35028,-24.38625 10.8931,-22.12702 32.02824,-35.1243 57.01301,-35.06075 25.90319,0.0659 46.77374,13.25254 57.77279,36.50262 3.11434,6.58318 3.48597,9.03915 3.48597,23.03752 0,14.91265 -0.21191,16.09921 -4.39125,24.58867 -8.48297,17.23134 -24.8145,29.67238 -44.40065,33.82353 -9.92475,2.10348 -14.101,2.2043 -23.33872,0.56345 z"
         id="path1139"
         transform="scale(0.26458333)" />
      <path
         style="fill:#ff9a00;fill-opacity:1;stroke-width:0.339746"
         d="m 320.38016,545.6565 c -1.76404,-0.18152 -0.40409,-0.27568 5.26606,-0.36461 l 7.64428,-0.1199 -8.1539,-0.24304 c -4.88969,-0.14575 -9.44597,-0.4662 -11.38148,-0.80048 -33.35346,-5.76049 -60.15875,-32.812 -65.81164,-66.41616 -0.95529,-5.67883 -0.85428,-18.12581 0.19462,-23.98197 4.57647,-25.55106 20.80595,-47.0895 44.04317,-58.45051 7.93032,-3.87724 15.62103,-6.2586 24.27199,-7.51559 5.26144,-0.76449 15.78689,-0.74955 20.91419,0.0297 20.73589,3.15143 39.08595,13.63147 51.79956,29.58362 9.89181,12.41158 16.42447,29.0555 17.26862,43.99707 l 0.23993,4.24682 0.19061,-3.05771 c 0.12299,-1.97295 0.19031,-0.64712 0.18978,3.7372 -6.8e-4,4.58412 -0.0626,5.74479 -0.19061,3.56733 l -0.18978,-3.22759 -0.23993,4.24683 c -0.86363,15.28641 -7.44994,31.78746 -17.83241,44.67655 -12.74788,15.82558 -30.71996,25.81077 -52.00876,28.89578 l -3.30396,0.47879 2.88784,-0.16222 c 1.58831,-0.0892 3.57582,-0.26012 4.41669,-0.37978 0.84087,-0.11965 1.45074,-0.13114 1.35526,-0.0255 -0.79488,0.87928 -16.45035,1.81221 -21.57013,1.2854 z"
         id="path1149"
         transform="scale(0.26458333)" />
    </g>
    <path
       style="fill:#ff9a00;fill-opacity:1;stroke-width:0.339746"
       d="m 159.68046,681.81996 c -24.91441,-1.3412 -46.9177,-16.88185 -56.07983,-39.60849 -6.390376,-15.85132 -5.357613,-34.33683 2.77519,-49.67329 10.22244,-19.27701 30.90063,-32.40064 52.91997,-33.58621 11.47652,-0.61792 21.57621,1.1473 31.4615,5.49881 17.16266,7.55502 30.44281,22.72984 35.2119,40.23555 5.79767,21.28132 -0.51182,43.56376 -16.77153,59.22989 -13.0553,12.5787 -30.59956,18.92211 -49.5172,17.90374 z m 11.55136,-0.98454 c 12.86888,-1.4691 24.56747,-6.47653 34.38848,-14.71954 7.18074,-6.02696 13.09375,-14.02049 17.29481,-23.38007 3.00621,-6.69758 3.22379,-7.9448 3.42656,-19.64226 0.25688,-14.81842 -0.1726,-17.94212 -3.4635,-25.19058 -5.4051,-11.90516 -12.87229,-20.84183 -23.11824,-27.66771 -16.33715,-10.88385 -37.89606,-13.62005 -57.06675,-7.24273 -16.7526,5.57291 -29.41565,16.92823 -37.41272,33.54905 -3.90464,8.11529 -4.39222,11.28538 -4.10719,26.70392 0.20874,11.29158 0.40421,12.55332 2.8044,18.10241 9.51049,21.98768 27.85219,36.20246 50.74503,39.32729 4.011,0.54749 12.4033,0.62894 16.50912,0.16022 z"
       id="path1153"
       transform="scale(0.26458333)" />
  </g>
</svg>
