<?xml version="1.0" encoding="UTF-8" standalone="no"?>
<!-- Created with Inkscape (http://www.inkscape.org/) -->

<svg
   width="194.6181mm"
   height="166.7314mm"
   viewBox="0 0 194.6181 166.7314"
   version="1.1"
   id="svg5"
   xmlns:inkscape="http://www.inkscape.org/namespaces/inkscape"
   xmlns:sodipodi="http://sodipodi.sourceforge.net/DTD/sodipodi-0.dtd"
   xmlns="http://www.w3.org/2000/svg"
   xmlns:svg="http://www.w3.org/2000/svg">
  <sodipodi:namedview
     id="namedview7"
     pagecolor="#ffffff"
     bordercolor="#000000"
     borderopacity="0.25"
     inkscape:showpageshadow="2"
     inkscape:pageopacity="0.0"
     inkscape:pagecheckerboard="0"
     inkscape:deskcolor="#d1d1d1"
     inkscape:document-units="mm"
     showgrid="false" />
  <defs
     id="defs2">
    <inkscape:path-effect
       effect="spiro"
       id="path-effect162"
       is_visible="true"
       lpeversion="1" />
  </defs>
  <g
     inkscape:label="Capa 1"
     inkscape:groupmode="layer"
     id="layer1"
     transform="translate(-3.89195,-10.370422)">
    <path
       style="fill:#ff9a00;fill-opacity:1;stroke-width:0.264583"
       d="m 14.433994,105.15675 c 3.93564,-2.95089 8.590661,-4.79297 13.298223,-6.21981 4.707561,-1.426843 9.52777,-2.473048 14.196272,-4.022923 4.668501,-1.549874 9.241089,-3.645979 12.932465,-6.897249 3.691376,-3.251271 6.441725,-7.775494 6.794798,-12.681853 0.118849,-1.651549 -0.03091,-3.310325 0,-4.965856 0.09844,-5.272847 2.057667,-10.419093 5.0836,-14.738391 3.025934,-4.319297 7.081334,-7.848254 11.512335,-10.70812 8.862003,-5.719732 19.121262,-8.799867 28.761803,-13.078931 8.44503,-3.748423 16.43984,-8.43137 24.73809,-12.494395 8.29825,-4.063026 17.02524,-7.537717 26.19957,-8.633554 9.36798,-1.118968 19.26457,0.416458 27.16808,5.5687 3.95176,2.576122 7.35298,6.02965 9.71007,10.115836 2.35709,4.086187 3.64927,8.807773 3.51858,13.523248 -0.1227,4.42712 -1.47573,8.747506 -3.34374,12.7631 -1.86801,4.015594 -4.24789,7.767487 -6.55504,11.547896 -2.30716,3.780408 -4.55902,7.623717 -6.14125,11.760262 -1.58223,4.136545 -2.47822,8.608814 -1.98122,13.009659 0.46761,4.140582 2.14566,8.06167 4.24261,11.662491 2.09695,3.60082 4.61874,6.93278 6.95511,10.38307 2.33636,3.45028 4.50902,7.06403 5.80439,11.02447 1.29537,3.96044 1.66656,8.32187 0.39538,12.29014 -1.23941,3.8691 -3.97958,7.15033 -7.28993,9.50566 -3.31036,2.35533 -7.17125,3.84064 -11.10719,4.84783 -7.87187,2.01438 -16.18394,2.20929 -23.84907,4.90558 -9.59061,3.3736 -17.38696,10.36319 -25.93285,15.87036 -4.27294,2.75358 -8.81808,5.17418 -13.72035,6.51879 -4.90228,1.34461 -10.20388,1.56492 -15.03191,-0.0258 -4.728277,-1.55786 -8.768079,-4.75947 -12.121916,-8.4385 -3.353836,-3.67904 -6.103117,-7.857 -9.005235,-11.9019 -2.902118,-4.0449 -6.010319,-8.01388 -9.916212,-11.10054 -3.905892,-3.08667 -8.712442,-5.25241 -13.690611,-5.21563 -4.749817,0.0351 -9.246602,2.03171 -13.498693,4.14872 -4.252091,2.117 -8.522511,4.42618 -13.214025,5.16894 -5.177746,0.81974 -10.631809,-0.39958 -15.029167,-3.2534 -4.3973579,-2.85381 -7.7147412,-7.29981 -9.3057857,-12.29477 -1.5910446,-4.99496 -1.4650776,-10.50184 0.2459592,-15.45698 1.7110367,-4.95514 4.9826425,-9.34138 9.1768595,-12.48615 z"
       id="path160"
       inkscape:path-effect="#path-effect162"
       inkscape:original-d="M 14.433994,105.15675 C 9.4630182,90.659391 45.91543,85.275792 61.655752,75.334915 c 15.740319,-9.940877 2.64e-4,-3.310308 0,-4.965856 -2.65e-4,-1.655551 30.238757,-25.683363 45.357738,-38.525442 15.11898,-12.842076 33.9587,-14.085034 50.93766,-21.127949 16.97895,-7.0429137 26.93142,19.472121 40.39673,29.207784 13.46532,9.735662 -12.0139,32.720875 -18.02125,49.080917 -6.00735,16.360041 11.59859,30.240371 17.39749,45.360171 5.7989,15.11979 -28.16387,12.83965 -42.24619,19.25907 -14.08233,6.41943 -36.45648,14.90917 -54.68511,22.36335 -18.228633,7.45419 -29.822383,-24.43745 -44.733974,-36.65657 -14.911589,-12.21912 -17.808214,6.21204 -26.712718,9.31766 -8.904504,3.10562 -9.941158,-28.99393 -14.912134,-43.4913 z" />
  </g>
</svg>
